# xmcd
#
# Track frame offsets:
#	150
#	13768
#	26792
#	38813
#	51042
#	64243
#	78630
#	92758
#	109343
#	123084
#
# Disc length: 1840 seconds
#
# Revision: 0
# Processed by: cddbd v1.5.2PL0 Copyright (c) Steve Scherf et al.
# Submitted via: dBpowerAMP V4.0
#
DISCID=81072e0a
DTITLE=Dave Rowland and Sugar - Pleasure
DYEAR=1981
DGENRE=Country
TTITLE0=For A Slow Dance With You
TTITLE1=If I Never Saw The Light Of Day Again
TTITLE2=Fool By Your Side
TTITLE3=Don't Let Our Dreams Die Young
TTITLE4=Take A Chance On Me
TTITLE5=One Step At A Time
TTITLE6=Your Precious Love
TTITLE7=The Pleasure's All Mine
TTITLE8=The First Time All Over Again
TTITLE9=Once Or Twice
EXTD=
EXTT0=
EXTT1=
EXTT2=
EXTT3=
EXTT4=
EXTT5=
EXTT6=
EXTT7=
EXTT8=
EXTT9=
PLAYORDER=
